<?xml version="1.0" standalone="no"?>
<!DOCTYPE svg PUBLIC "-//W3C//DTD SVG 20010904//EN"
 "http://www.w3.org/TR/2001/REC-SVG-20010904/DTD/svg10.dtd">
<svg version="1.0" xmlns="http://www.w3.org/2000/svg"
 width="32.000000pt" height="32.000000pt" viewBox="0 0 32.000000 32.000000"
 preserveAspectRatio="xMidYMid meet">

<g transform="translate(0.000000,32.000000) scale(0.100000,-0.100000)"
fill="#000000" stroke="none">
<path d="M90 271 c0 -5 9 -11 20 -13 38 -6 26 -23 -20 -29 -48 -6 -39 -16 20
-21 34 -3 35 -4 38 -50 2 -29 -1 -48 -7 -48 -6 0 -11 18 -11 40 0 22 -4 40
-10 40 -5 0 -10 -18 -10 -40 0 -22 -4 -40 -10 -40 -5 0 -10 7 -10 15 0 25 -27
17 -32 -10 l-5 -25 115 0 c90 0 113 3 104 12 -16 16 -16 100 0 116 15 15 5 24
-50 45 -46 18 -132 23 -132 8z m100 -111 c0 -27 -4 -50 -10 -50 -11 0 -14 83
-3 93 12 12 13 8 13 -43z m40 0 c0 -27 -4 -50 -10 -50 -11 0 -14 83 -3 93 12
12 13 8 13 -43z"/>
<path d="M25 50 c4 -6 60 -10 135 -10 75 0 131 4 135 10 4 6 -43 10 -135 10
-92 0 -139 -4 -135 -10z"/>
</g>
</svg>
